<svg xmlns="http://www.w3.org/2000/svg" version="1.1" xmlns:xlink="http://www.w3.org/1999/xlink" width="45" height="60"><svg width="45" height="60" viewBox="0 0 45 60" fill="none" xmlns="http://www.w3.org/2000/svg">
<path d="M21.243 0.440612C20.7978 0.82938 14.984 8.91578 7.96554 18.9201C4.82295 23.378 2.41363 27.9914 0.97328 32.1901C0.292386 34.2635 0.161445 35.0929 0.0566922 38.0994C-0.0742489 41.1318 0.00431579 41.9093 0.475704 43.7754C1.13041 46.2376 2.17794 48.4406 3.77542 50.6955C4.87533 52.2246 7.62509 54.946 8.59405 55.4644C9.06544 55.6976 9.06544 55.6458 8.82975 54.6091C8.69881 54.013 8.62024 52.0691 8.67262 50.2808C8.77737 47.5076 8.90831 46.7041 9.61539 44.6307C10.7939 41.2354 12.4699 37.9438 17.079 29.9352C21.4525 22.3931 21.8977 21.8229 23.1809 22.5486C23.9404 22.9633 30.9064 34.7819 33.2634 39.6544C35.5679 44.3715 36.1964 46.5486 36.3274 50.2808C36.3798 52.0691 36.3012 54.013 36.1703 54.6091C35.9346 55.6458 35.9346 55.6976 36.4059 55.4644C37.3749 54.946 40.1247 52.2246 41.2246 50.6955C42.8221 48.4406 43.8696 46.2376 44.5243 43.7754C44.9957 41.9093 45.0743 41.1318 44.9433 38.0994C44.8386 35.0929 44.7076 34.2635 44.0267 32.1901C42.5864 27.9914 40.1771 23.378 37.0345 18.9201C30.016 8.91578 24.2022 0.82938 23.757 0.440612C23.469 0.20735 22.8928 6.8204e-06 22.5 6.8204e-06C22.1072 6.8204e-06 21.531 0.20735 21.243 0.440612Z" fill="black"></path>
<path d="M21.4525 30.324C21.1645 30.6091 20.1169 32.4493 19.0956 34.3931C18.1004 36.3629 16.7125 38.9546 16.0054 40.1728C13.7008 44.2419 12.8104 46.8855 12.8104 49.7624C12.8104 53.987 15.0364 57.6933 18.5195 59.3002C19.8027 59.8963 20.3526 60 22.5001 60C24.6475 60 25.1975 59.8963 26.4807 59.3002C29.9637 57.6933 32.1897 53.987 32.1897 49.7624C32.1897 46.4968 31.6659 45.2009 26.0879 34.73C24.8308 32.3715 23.6 30.2981 23.3643 30.1166C22.7358 29.6501 22.0549 29.7279 21.4525 30.324Z" fill="black"></path>
</svg><style>@media (prefers-color-scheme: light) { :root { filter: none; } }
@media (prefers-color-scheme: dark) { :root { filter: invert(100%); } }
</style></svg>